<?xml version="1.0" encoding="iso-8859-1"?>
<!-- Generator: Adobe Illustrator 16.0.3, SVG Export Plug-In . SVG Version: 6.00 Build 0)  -->
<!DOCTYPE svg PUBLIC "-//W3C//DTD SVG 1.1//EN" "http://www.w3.org/Graphics/SVG/1.1/DTD/svg11.dtd">
<svg version="1.1" xmlns="http://www.w3.org/2000/svg" xmlns:xlink="http://www.w3.org/1999/xlink" x="0px" y="0px" width="490px"
	 height="555px" viewBox="0 0 490 555" style="enable-background:new 0 0 490 555;" xml:space="preserve">
<g id="Vrstva_1_1_">
	<path style="fill:#E21B52;" d="M179.005,177.787c-9.995-5.992-27-13.894-47.428-14.091c-0.314-0.016-0.626-0.016-0.931-0.016
		c-18.027,0-31.002,5.311-38.962,10.009c-3.119,1.833-5.3,6.586-4.912,10.219c4.098,38.045,24.356,48.309,48.769,48.309
		c23.5,0,43.132-9.59,48.205-44.312C184.275,184.286,182.101,179.639,179.005,177.787z M127.633,204.712
		c-0.273,0.086-0.534,0.125-0.808,0.125c-3.13,0-5.477-5.666-6.914-10.426c-1.57-5.307-2.72-11.845,0.76-12.924
		c0.248-0.081,0.528-0.114,0.789-0.114c3.131,0,5.477,5.666,6.901,10.423C129.95,197.101,131.113,203.639,127.633,204.712z
		 M151.019,193.433c-1.309,4.832-3.522,10.61-6.688,10.61c-0.242,0-0.483-0.038-0.725-0.1c-3.513-0.979-2.53-7.55-1.087-12.879
		c1.315-4.852,3.535-10.617,6.694-10.617c0.248,0,0.497,0.026,0.725,0.094C153.448,181.526,152.468,188.087,151.019,193.433z"/>
	<path style="fill:#E21B52;" d="M230.552,59.859c-17.356-10.507-36.747,1.086-51.381,6.98c-14.636,5.917-17.306,2.35-17.306,2.35
		s-6.173-7.763-10.235-11.861c2.631-4.964,5.518-10.207,8.716-15.752c3.998-6.949,7.253-12.569,7.083-12.663
		c-0.171-0.094,3.617,0.669,7.699-1.37c2.403-1.206,4.457-3.151,5.805-5.731c3.415-6.547,0.959-14.646-5.474-18.118
		c-6.421-3.467-14.419-0.972-17.815,5.563c-1.341,2.585-1.767,5.394-1.424,8.092c0.635,4.573,3.371,7.333,3.167,7.23
		c-0.19-0.113-3.046,5.73-6.592,12.934c-2.079,4.247-4.636,9.279-7.522,14.738c-3.134-1.891-6.389-2.932-9.724-2.932
		c-4.212,0-8.293,1.642-12.194,4.586c-3.255-6.089-6.106-11.706-8.404-16.393c-3.548-7.204-6.393-13.047-6.593-12.934
		c-0.197,0.113,2.543-2.647,3.157-7.23c0.372-2.692-0.067-5.507-1.415-8.092c-3.398-6.535-11.386-9.03-17.811-5.563
		c-6.437,3.472-8.885,11.571-5.467,18.118c1.348,2.586,3.398,4.535,5.792,5.731c4.084,2.039,7.879,1.276,7.702,1.37
		c-0.175,0.094,3.08,5.714,7.082,12.663c3.694,6.408,6.987,12.417,9.924,18.043c-2.559,2.944-5,6.441-7.336,10.371l0.219-0.802
		c0,0-2.661,3.562-17.296-2.35c-14.635-5.904-34.029-17.494-51.385-6.974C26.399,69.038,9.837,76.307,3.244,89.557
		c-1.621,3.265-0.229,8.445,2.823,10.372c2.826,1.78,6.831,3.606,12.013,4.312c11.361,1.541,18.535,9.786,29.887,11.33
		c11.354,1.542,30.468-1.458,36.053-6.289c4.403-3.8,9.337-11.683,15.033-15.17c-6.597,18.619-11.062,40.585-12.506,60.972
		c-0.253,3.649,2.168,5.146,5.436,3.62c9.454-4.415,22.356-8.268,38.676-8.268c0.359,0,0.696,0,1.056,0.006
		c19.508,0.194,36.031,6.335,47.589,12.34c3.197,1.667,5.665,0.213,5.486-3.442c-1.093-21.796-5.811-45.851-13.001-65.917
		c6.224,3.018,11.552,11.773,16.269,15.858c5.595,4.832,24.7,7.831,36.053,6.289c11.355-1.544,18.533-9.789,29.887-11.33
		c11.355-1.545,17.053-8.475,17.053-8.475C267.109,78.391,247.896,70.369,230.552,59.859z M120.296,109.083
		c-2.695,0-4.882-2.227-4.882-4.964c0-2.741,2.188-4.964,4.882-4.964c2.693,0,4.883,2.224,4.883,4.964
		C125.179,106.857,122.989,109.083,120.296,109.083z M149.048,109.083c-2.695,0-4.882-2.227-4.882-4.964
		c0-2.741,2.188-4.964,4.882-4.964c2.697,0,4.882,2.224,4.882,4.964C153.93,106.857,151.745,109.083,149.048,109.083z"/>
	<g>
		<path style="fill:#E21B52;" d="M154,382.61c0-14.504-1.053-97.156-1.022-126.593c0.008-3.658,0.201-6.779,0.258-6.98
			c0.038-0.122,0.146-0.232,0.146-0.361c0.011-0.672,0.065-1.281,0.065-1.876c0.051-3.644-2.657-5.675-6.179-4.938
			c-11.322,2.366-21.735,1.189-28.061-0.071c-3.529-0.705-5.987,1.344-5.901,5.003c0.216,9.185-0.103,25.662-0.649,44.121
			c-0.007,0.201,0.027,0.382,0.074,0.568c0.07,0.318,0,3.523-0.143,7.176c-0.582,14.215-1.42,35.428-2.056,53.436
			c-0.022,0.155-0.785,20.141-1.026,30.516l-83.602,99.665L33.273,514H111v31h43v-31h21v-34h-21V382.61z M130.586,375.468
			c0.62-11.712,5.353-18.524,10.529-22.488c2.86-2.203,5.619-0.335,5.619,3.33c0.007,7.227,0.013,13.823,0.019,18.878
			c0.014,3.646-2.886,6.813-6.484,6.813h-3.478c-3.598,0-6.443-0.426-6.373-0.711c0.053-0.154,0.092-0.436,0.085-0.615
			C130.465,379.07,130.491,377.266,130.586,375.468z M135.183,272.564c0.62-5.985,3.086-9.902,6.018-12.448
			c2.724-2.367,5.585-0.375,5.578,3.283c-0.007,7.123-0.019,15.964-0.019,25.609c-0.007,3.657-2.797,5.514-5.449,3.051
			C137.077,288.136,134.207,281.886,135.183,272.564z M118.831,305.297c0.143-3.651,3.15-5.972,6.373-4.343
			c7.14,3.594,13.443,10.873,9.785,25.583c-2.925,11.79-7.096,18.706-11.628,21.524c-3.065,1.913-6.113-1.578-5.982-5.223
			C117.855,329.911,118.386,316.286,118.831,305.297z M111,480H72.886L111,434.198V480z"/>
		<path style="fill:#E21B52;" d="M258.73,380.537c-45.832,0-74.73,38.23-74.73,83.832v0.46c0,45.601,28.207,83.372,74.27,83.372
			c46.061,0,74.73-38.231,74.73-83.832v-0.46C333,418.308,304.563,380.537,258.73,380.537z M288,464.829
			c0,25.564-11.305,43.76-29.27,43.76c-17.964,0-29.73-18.426-29.73-44.22v-0.46c0-25.795,11.536-43.76,29.27-43.76
			c17.732,0,29.73,18.655,29.73,44.22V464.829z"/>
		<path style="fill:#E21B52;" d="M467,480v-97h-44.504l-83.604,99.471L346.266,514H424v31h43v-31h21v-34H467z M424,480h-38.123
			L424,434.198V480z"/>
	</g>
</g>
<g id="Vrstva_1">
</g>
</svg>
